<?xml version="1.0" encoding="UTF-8" standalone="no"?>
<!DOCTYPE svg PUBLIC "-//W3C//DTD SVG 1.1//EN" "http://www.w3.org/Graphics/SVG/1.1/DTD/svg11.dtd">
<svg xmlns="http://www.w3.org/2000/svg" version="1.1" viewBox="0 0 280 280" width="280.0pt" height="280.0pt">
<path d="M 0.00 0.00 L 280.00 0.00 L 280.00 280.00 L 0.00 280.00 L 0.00 0.00 Z" fill="#ffffff" />
<path d="M 132.49 25.77 C 153.44 23.24 174.71 24.34 195.10 29.88 C 219.02 36.32 241.78 48.95 257.79 68.11 C 269.00 81.47 276.30 97.69 278.59 115.00 C 280.91 126.56 279.06 137.48 276.54 148.79 C 271.03 171.06 258.01 190.79 241.36 206.35 C 219.82 226.46 192.71 239.69 164.03 246.03 C 135.50 252.39 105.26 251.67 77.40 242.55 C 53.82 234.90 31.40 220.49 17.14 199.93 C 8.54 187.81 3.31 173.69 1.28 159.01 C -0.94 147.13 1.10 136.09 3.81 124.53 C 9.70 101.70 24.01 81.12 41.56 65.64 C 66.90 43.30 99.12 30.00 132.49 25.77 Z" fill="#338899" />
<path d="M 142.22 41.27 C 160.82 39.01 179.96 42.01 196.84 50.17 C 214.34 58.55 229.22 72.24 239.05 88.96 C 255.13 115.94 256.96 150.41 244.00 179.00 C 235.86 197.18 222.06 212.73 204.98 222.98 C 178.42 239.17 144.38 241.45 115.83 229.18 C 97.02 221.18 80.89 207.16 70.31 189.68 C 60.88 174.22 55.92 156.11 56.14 138.00 C 56.19 120.74 60.96 103.59 69.77 88.76 C 84.99 62.81 112.32 44.80 142.22 41.27 Z" fill="#99dddd" />
<path d="M 127.21 60.21 C 145.10 58.12 163.84 63.00 178.56 73.37 C 194.28 84.19 205.62 101.25 209.48 119.95 C 212.34 134.40 211.37 149.99 205.78 163.69 C 200.66 176.82 191.69 188.02 180.55 196.55 C 168.00 205.87 152.66 211.29 137.00 211.51 C 120.35 212.03 103.64 206.73 90.28 196.79 C 79.54 189.10 71.08 178.21 65.71 166.19 C 59.55 152.36 57.97 136.82 60.57 121.96 C 63.61 104.90 72.78 89.19 85.96 77.96 C 97.51 68.02 112.05 61.75 127.21 60.21 Z" fill="#ffffff" />
<path d="M 142.12 64.42 C 150.41 66.54 158.60 68.12 166.20 72.27 C 160.23 70.46 155.10 67.69 148.65 68.03 C 151.77 71.10 154.78 73.84 156.26 78.12 C 154.06 75.06 151.82 72.21 148.83 69.88 C 146.55 68.11 144.22 66.42 142.12 64.42 Z" fill="#5881d8" />
<path d="M 148.65 68.03 C 155.10 67.69 160.23 70.46 166.20 72.27 C 171.28 74.68 176.49 77.54 179.79 82.26 C 183.53 87.49 186.38 93.62 187.41 100.00 C 188.55 109.73 184.99 118.81 179.08 126.40 C 176.42 114.89 170.83 106.31 161.56 99.06 C 161.95 91.37 159.72 84.84 156.26 78.12 C 154.78 73.84 151.77 71.10 148.65 68.03 Z" fill="#5881d8" />
<path d="M 122.01 70.38 C 133.46 71.08 142.59 78.85 147.29 88.99 L 146.69 90.50 C 142.92 89.63 138.85 87.96 135.00 87.92 C 129.15 88.01 123.99 90.51 118.58 91.44 C 115.98 91.85 113.06 90.09 110.62 89.32 C 105.05 87.05 98.90 87.95 93.00 87.76 C 89.13 87.84 85.83 87.09 82.35 89.19 C 89.48 82.10 96.60 75.76 105.96 71.71 C 110.86 69.81 116.83 70.26 122.01 70.38 Z" fill="#71be39" />
<path d="M 93.00 87.76 C 98.90 87.95 105.05 87.05 110.62 89.32 C 113.06 90.09 115.98 91.85 118.58 91.44 C 123.99 90.51 129.15 88.01 135.00 87.92 C 138.85 87.96 142.92 89.63 146.69 90.50 L 147.29 88.99 C 147.75 89.92 148.22 90.85 148.70 91.78 C 141.81 89.68 135.08 90.05 127.98 90.31 C 124.00 90.53 120.66 92.02 117.02 93.49 C 112.94 91.03 108.90 88.96 104.08 88.49 C 99.74 88.14 95.28 88.08 90.95 88.47 C 86.92 88.82 83.91 90.81 80.51 92.79 C 80.55 92.11 80.59 91.43 80.63 90.75 C 81.20 90.23 81.78 89.70 82.35 89.19 C 85.83 87.09 89.13 87.84 93.00 87.76 Z" fill="#71be39" />
<path d="M 136.82 98.16 C 141.40 98.44 145.50 99.86 149.80 101.29 C 142.99 99.93 135.90 99.73 128.98 99.98 C 127.26 100.02 126.04 100.43 124.56 101.24 C 124.14 100.73 123.71 100.23 123.29 99.73 C 127.87 99.09 132.24 97.82 136.82 98.16 Z" fill="#71be39" />
<path d="M 128.98 99.98 C 135.90 99.73 142.99 99.93 149.80 101.29 L 150.73 101.55 C 149.83 112.69 143.35 119.78 137.11 128.37 C 136.71 128.35 136.31 128.32 135.91 128.30 C 135.66 126.13 135.50 124.05 134.88 121.95 C 132.56 114.43 129.67 107.33 124.56 101.24 C 126.04 100.43 127.26 100.02 128.98 99.98 Z" fill="#71be39" />
<path d="M 105.36 101.54 C 96.61 109.46 90.74 120.47 90.32 132.37 C 85.25 137.45 80.61 142.77 77.36 149.22 C 74.69 153.84 73.36 158.88 71.39 163.78 C 70.91 163.78 70.60 163.48 70.47 162.89 C 68.00 155.66 65.16 147.68 65.35 140.00 C 65.46 134.88 64.59 128.83 66.77 124.15 C 69.19 118.43 71.92 112.84 76.74 108.74 C 84.51 102.02 95.31 99.09 105.36 101.54 Z" fill="#5881d8" />
<path d="M 113.48 105.42 C 117.13 108.25 120.35 111.59 122.83 115.51 C 126.03 120.29 127.57 125.34 129.80 130.57 C 123.06 127.84 116.06 127.30 109.00 125.91 C 106.03 125.43 102.70 126.14 99.71 126.50 C 102.26 119.18 105.32 112.54 111.34 107.40 C 112.05 106.73 112.76 106.07 113.48 105.42 Z" fill="#90b4fe" />
<path d="M 164.20 113.81 C 168.74 118.90 170.63 125.63 170.89 132.34 C 164.35 135.43 157.96 134.49 150.98 134.50 C 149.04 134.44 147.15 134.35 145.32 133.64 C 145.16 132.63 145.34 131.72 145.87 130.93 C 148.44 126.59 152.05 122.91 154.71 118.60 C 156.28 116.22 157.58 113.46 159.49 111.35 C 161.59 110.75 162.86 112.52 164.20 113.81 Z" fill="#90b4fe" />
<path d="M 201.03 111.78 C 201.97 117.69 203.75 122.99 203.81 128.99 C 203.86 134.65 204.15 140.42 203.46 146.04 C 202.31 151.67 198.60 157.52 194.10 161.10 C 186.71 166.66 176.86 167.64 167.90 167.37 C 170.49 163.21 173.62 160.16 175.69 155.82 C 178.00 151.24 179.57 146.49 179.69 141.32 C 183.43 138.22 187.27 136.02 190.30 132.23 C 195.15 125.91 199.25 119.54 198.77 111.21 C 199.52 111.41 200.28 111.60 201.03 111.78 Z" fill="#71be39" />
<path d="M 127.50 136.77 C 127.85 137.15 128.21 137.52 128.56 137.89 C 123.47 142.43 118.89 147.66 114.91 153.19 C 112.61 156.33 111.19 159.82 110.11 163.54 C 104.22 157.10 99.95 149.60 98.57 140.91 C 97.96 138.80 100.27 137.93 101.52 136.70 C 110.53 134.29 118.52 136.38 127.50 136.77 Z" fill="#71be39" />
<path d="M 140.11 140.15 C 150.54 143.36 160.20 144.29 171.08 143.42 C 168.56 151.80 164.83 159.36 157.77 164.83 C 157.08 165.48 156.30 165.60 155.42 165.20 C 151.87 163.75 149.68 160.36 147.81 157.20 C 144.72 151.79 142.31 145.96 140.11 140.15 Z" fill="#71be39" />
<path d="M 133.57 143.50 C 136.00 150.38 137.68 158.13 141.06 164.71 C 142.00 166.78 145.01 168.76 145.27 170.92 C 138.00 173.33 130.68 172.57 123.43 170.65 C 121.89 169.85 120.57 168.53 119.25 167.41 C 120.67 163.23 121.95 159.16 124.41 155.44 C 126.70 152.01 129.17 148.71 131.38 145.22 C 132.12 144.40 132.27 143.28 133.57 143.50 Z" fill="#90b4fe" />
<path d="M 91.19 148.14 C 93.92 155.77 97.69 162.76 103.66 168.36 C 106.10 170.86 109.49 172.44 110.29 176.04 C 112.02 182.40 114.61 188.37 118.20 193.91 C 120.84 198.19 124.60 201.54 127.23 205.85 C 120.33 203.83 113.66 202.79 107.09 199.76 C 101.88 197.34 96.58 194.55 92.16 190.83 C 87.05 185.69 83.41 178.33 83.47 170.99 C 83.32 163.02 87.18 154.86 91.19 148.14 Z" fill="#71be39" />
<path d="M 155.02 176.48 C 158.39 176.70 161.67 177.85 165.03 178.30 C 174.20 179.38 183.23 178.68 192.17 176.40 C 184.51 187.25 173.55 196.07 161.15 200.88 C 152.06 204.33 141.79 201.59 134.58 195.42 C 129.57 191.11 126.43 184.96 123.09 179.36 C 131.28 181.04 139.95 181.38 147.98 178.77 C 150.33 178.06 152.63 177.01 155.02 176.48 Z" fill="#5881d8" />
</svg>